<?xml version="1.0" standalone="no"?><!DOCTYPE svg PUBLIC "-//W3C//DTD SVG 1.1//EN" "http://www.w3.org/Graphics/SVG/1.1/DTD/svg11.dtd"><svg t="1727535428517" class="icon" viewBox="0 0 1024 1024" version="1.1" xmlns="http://www.w3.org/2000/svg" p-id="15687" xmlns:xlink="http://www.w3.org/1999/xlink" width="200" height="200"><path d="M940.8 460.8c-19.2 0-38.4 12.8-38.4 32v38.4c0 19.2 19.2 32 38.4 32s38.4-12.8 38.4-32v-38.4c0-19.2-19.2-32-38.4-32zM998.4 19.2c-12.8-19.2-38.4-19.2-57.6 0L384 576c-19.2 12.8-19.2 38.4 0 57.6 12.8 19.2 38.4 19.2 57.6 0l556.8-556.8c19.2-12.8 19.2-38.4 0-57.6z" p-id="15688" fill="#1296db"></path><path d="M947.2 627.2c-25.6 0-38.4 19.2-38.4 38.4v204.8c0 32-25.6 64-64 64H147.2c-32 0-64-25.6-64-64V172.8c0-32 25.6-64 64-64H576c19.2 0 38.4-19.2 38.4-38.4S595.2 32 576 32H147.2C70.4 32 6.4 96 6.4 172.8v704c0 76.8 64 140.8 140.8 140.8h697.6c76.8 0 140.8-64 140.8-140.8v-211.2c0-25.6-19.2-38.4-38.4-38.4z" p-id="15689" fill="#1296db"></path></svg>