<svg
  t="1712147420704"
  class="icon"
  viewBox="0 0 1024 1024"
  version="1.1"
  xmlns="http://www.w3.org/2000/svg"
  p-id="4223"
  width="1em"
  height="1em"
  style="vertical-align: -0.15em; margin-right: 5px"
>
  <path
    d="M256 896a42.666667 42.666667 0 0 1-20.906667-5.546667A42.666667 42.666667 0 0 1 213.333333 853.333333V227.413333A97.28 97.28 0 0 1 307.2 128h409.6A97.28 97.28 0 0 1 810.666667 227.413333V853.333333a42.666667 42.666667 0 0 1-21.333334 36.693334 42.666667 42.666667 0 0 1-42.666666 0l-241.92-136.96-227.413334 136.533333A42.666667 42.666667 0 0 1 256 896z"
    p-id="4224"
    fill="#707070"
  ></path>
</svg>