<svg xmlns="http://www.w3.org/2000/svg" viewBox="0 0 24 24">
  <circle cx="12" cy="12" r="12" fill="#3DC076" fill-rule="evenodd"/>
  <path fill-rule="evenodd" d="M4.24785011,7.21543288 L8.81960238,1.70103587 C9.0654011,1.40455618 9.5050046,1.36347113 9.80148429,1.60926984 C9.83915952,1.64050478 9.87344193,1.67561907 9.90376475,1.71403222 C10.2152156,2.10858022 10.2085199,2.66714093 9.88770063,3.05410961 L4.67414999,9.34263672 C4.48073362,9.5759334 4.16731437,9.65109107 3.89805651,9.55276706 C3.79709762,9.52537849 3.69998395,9.47727715 3.61309602,9.40775465 C3.57033916,9.37354318 3.53127285,9.33495907 3.49653302,9.29263038 L0.891207628,6.11817685 C0.532333473,5.68090735 0.528428947,5.05214239 0.881844894,4.61044969 C1.15316905,4.27135378 1.64801228,4.21641393 1.98710819,4.48773808 C2.02986505,4.52194955 2.06893136,4.56053367 2.10367119,4.60286235 L4.24785011,7.21543288 Z" opacity=".1" transform="translate(6.72 7.68)"/>
  <path fill="#FFF" fill-rule="evenodd" d="M4.24785169,6.08601892 L8.81962064,0.571604585 C9.06541114,0.275134955 9.50499983,0.234051401 9.80146946,0.479841901 C9.83914343,0.511075807 9.87342469,0.546188947 9.9037465,0.584600835 C10.2151868,0.979135698 10.2084911,1.53767763 9.8876825,1.92463324 L4.67413173,8.21315731 C4.48080535,8.44634533 4.16758378,8.5215362 3.8984132,8.42340765 C3.79734638,8.39603431 3.700126,8.34790723 3.61315194,8.27831584 C3.57039638,8.24410542 3.53133125,8.20552249 3.49659247,8.1631951 L0.891267035,4.98874246 C0.532403792,4.55148639 0.528499284,3.92274066 0.881904342,3.48106141 C1.15322013,3.14197584 1.6480482,3.08703758 1.98713377,3.35835336 C2.02988933,3.39256378 2.06895445,3.43114672 2.10369324,3.4734741 L4.24785169,6.08601892 Z" transform="translate(6.72 7.68)"/>
</svg>
