<svg xmlns="http://www.w3.org/2000/svg" viewBox="0 0 24 24">
  <defs>
    <linearGradient id="error-a" x1="22.495%" x2="79.193%" y1="21.669%" y2="79.36%">
      <stop offset="0%" stop-color="#FFF"/>
      <stop offset="100%" stop-color="#FFF"/>
    </linearGradient>
  </defs>
  <circle cx="12" cy="12" r="12" fill="#D93C3D" fill-rule="evenodd"/>
  <path fill="#C7283C" fill-rule="evenodd" d="M6.53287574,5.35937939 L8.97321368,7.81613263 C9.34459583,8.19001293 9.33507636,8.77552622 8.95171564,9.13841145 C8.58325101,9.48719618 7.98585182,9.48719618 7.6173872,9.13841145 C7.61054252,9.13193234 7.60380357,9.12535391 7.59717276,9.1186785 L5.20242516,6.70782227 L2.94145601,8.99936756 C2.54827962,9.39786107 1.88827694,9.4191951 1.46729877,9.04701846 C1.4586255,9.03935063 1.45009113,9.03154324 1.44169937,9.02359969 C1.01608995,8.62072229 1.00437464,7.97103213 1.41521088,7.55463996 L3.72161205,5.21704825 L1.27239905,2.75136025 C0.901016906,2.37747995 0.910536373,1.79196666 1.29389709,1.42908143 C1.66236172,1.0802967 2.25976091,1.0802967 2.62822553,1.42908143 C2.63507022,1.43556054 2.64180916,1.44213897 2.64843997,1.44881438 L5.05206263,3.86860536 L7.57316842,1.31340548 C7.96634481,0.914911975 8.62634749,0.893577942 9.04732566,1.26575459 C9.05599893,1.27342241 9.0645333,1.2812298 9.07292506,1.28917336 C9.49853448,1.69205076 9.51024979,2.34174092 9.09941355,2.75813308 L6.53287574,5.35937939 Z" transform="translate(7 8)"/>
  <path fill="url(#error-a)" fill-rule="evenodd" d="M6.32526649,4.22580645 L8.6518759,6.55241586 C9.08019286,6.98073283 9.08019286,7.67517183 8.6518759,8.1034888 C8.22355893,8.53180577 7.52911992,8.53180577 7.10080296,8.1034888 L4.77419355,5.77687939 L2.44758414,8.1034888 C2.01926717,8.53180577 1.32482817,8.53180577 0.8965112,8.1034888 C0.468194235,7.67517183 0.468194235,6.98073283 0.8965112,6.55241586 L3.22312061,4.22580645 L0.8965112,1.89919704 C0.468194235,1.47088008 0.468194235,0.776441068 0.8965112,0.348124103 C1.32482817,-0.080192862 2.01926717,-0.080192862 2.44758414,0.348124103 L4.77419355,2.67473351 L7.10080296,0.348124103 C7.52911992,-0.080192862 8.22355893,-0.080192862 8.6518759,0.348124103 C9.08019286,0.776441068 9.08019286,1.47088008 8.6518759,1.89919704 L6.32526649,4.22580645 Z" transform="translate(7 8)"/>
</svg>
