<svg t="1723532081032" class="icon" viewBox="0 0 1024 1024" version="1.1"
    xmlns="http://www.w3.org/2000/svg" p-id="6726" width="2em" height="2em">
    <path
        d="M957.038277 643.229538c21.519754 0 39.069538 16.903877 39.912369 38.06917l0.031508 1.599015v249.202215c0 21.370092-17.022031 38.793846-38.336985 39.620924l-1.606892 0.039384H711.002585c-22.063262 0-39.943877-17.762462-39.943877-39.660308 0-21.370092 17.014154-38.793846 38.336984-39.636676l1.606893-0.031508h206.083938l0.007877-209.534031c0-21.370092 17.014154-38.793846 38.336985-39.636677l1.606892-0.031508z"
        fill="#f0f0f0" p-id="6727"></path>
    <path
        d="M624.214646 592.368246a40.148677 40.148677 0 0 1 55.169969-1.016123l1.315447 1.260308 290.760861 291.304369a39.463385 39.463385 0 0 1-0.252061 56.083692 40.148677 40.148677 0 0 1-55.16997 1.024l-1.315446-1.260307-290.760861-291.312247a39.463385 39.463385 0 0 1 0.252061-56.083692zM69.907692 352.949169c-21.519754 0-39.069538-16.903877-39.912369-38.069169l-0.031508-1.591138V64.086646c0-21.370092 17.022031-38.793846 38.336985-39.6288l1.606892-0.031508H315.943385c22.055385 0 39.943877 17.754585 39.943877 39.660308 0 21.370092-17.014154 38.793846-38.336985 39.6288l-1.606892 0.031508H109.859446l-0.007877 209.541908c0 21.370092-17.022031 38.793846-38.336984 39.6288l-1.606893 0.031507z"
        fill="#f0f0f0" p-id="6728"></path>
    <path
        d="M402.731323 403.818338a40.148677 40.148677 0 0 1-55.169969 1.008247l-1.315446-1.260308L55.485046 112.261908a39.463385 39.463385 0 0 1 0.252062-56.083693 40.148677 40.148677 0 0 1 55.169969-1.016123l1.315446 1.260308L402.983385 347.726769a39.463385 39.463385 0 0 1-0.252062 56.083693zM984.064 414.696369c-21.527631 0-39.069538-16.896-39.920246-38.061292l-0.031508-1.599015V79.328492H652.335262c-21.519754 0-39.069538-16.903877-39.91237-38.069169l-0.031507-1.599015c0-21.370092 17.022031-38.793846 38.336984-39.6288L652.327385 0h331.728738c21.519754 0 39.069538 16.903877 39.912369 38.069169l0.031508 1.591139v335.375754c0 21.905723-17.880615 39.660308-39.936 39.660307zM39.936 609.303631c21.527631 0 39.069538 16.896 39.920246 38.061292l0.031508 1.599015v295.699693l291.784861 0.015754c21.519754 0 39.069538 16.896 39.91237 38.061292l0.031507 1.599015c0 21.370092-17.022031 38.793846-38.336984 39.6288l-1.606893 0.031508H39.936c-21.519754 0-39.069538-16.903877-39.912369-38.069169L0 984.339692V648.963938c0-21.905723 17.880615-39.660308 39.936-39.660307z"
        fill="#f0f0f0" p-id="6729"></path>
</svg>