<svg t="1723513150667" class="icon" viewBox="0 0 1024 1024" version="1.1"
    xmlns="http://www.w3.org/2000/svg" p-id="2627" id="mx_n_1723513150668" width="2em" height="2em">
    <path
        d="M512 844.606c-58.519 0-118.836-16.271-179.277-48.363-46.915-24.909-94.073-59.416-140.164-102.56C114.987 621.071 67.13 549.159 65.13 546.132a37.002 37.002 0 0 1 0-40.795c2-3.026 49.857-74.938 127.429-147.551 46.091-43.144 93.249-77.65 140.164-102.56 60.441-32.092 120.759-48.363 179.277-48.363s118.836 16.271 179.277 48.363c46.915 24.909 94.073 59.416 140.164 102.56C909.012 430.398 956.87 502.31 958.87 505.337a37.002 37.002 0 0 1 0 40.795c-2 3.026-49.857 74.938-127.429 147.551-46.091 43.144-93.249 77.65-140.164 102.56-60.441 32.091-120.758 48.363-179.277 48.363z m-370.487-318.87c46.516 62.165 197.934 244.87 370.487 244.87 172.541 0 323.95-182.679 370.486-244.871C835.95 463.543 684.541 280.864 512 280.864S188.049 463.543 141.513 525.736z"
        fill="#f0f0f0" p-id="2628"></path>
    <path
        d="M512 687.889c-89.412 0-162.154-72.742-162.154-162.154S422.588 363.581 512 363.581s162.154 72.742 162.154 162.154S601.412 687.889 512 687.889z m0-250.308c-48.608 0-88.154 39.546-88.154 88.154s39.546 88.154 88.154 88.154 88.154-39.546 88.154-88.154-39.546-88.154-88.154-88.154z"
        fill="#f0f0f0" p-id="2629"></path>
</svg>