<svg t="1723425251651" class="icon" viewBox="0 0 1024 1024" version="1.1"
    xmlns="http://www.w3.org/2000/svg" p-id="22914" width="2em" height="2em">
    <path
        d="M785.066667 716.8c-64.853333 0-116.053333 44.373333-133.12 102.4H409.6c-58.026667 0-102.4-44.373333-102.4-102.4v-170.666667h344.746667c13.653333 58.026667 68.266667 102.4 133.12 102.4 75.093333 0 136.533333-61.44 136.533333-136.533333s-61.44-136.533333-136.533333-136.533333c-64.853333 0-116.053333 44.373333-133.12 102.4H307.2v-102.4-3.413334c78.506667-17.066667 136.533333-85.333333 136.533333-167.253333 0-95.573333-75.093333-170.666667-170.666666-170.666667S102.4 109.226667 102.4 204.8c0 81.92 58.026667 150.186667 136.533333 167.253333V716.8c0 95.573333 75.093333 170.666667 170.666667 170.666667h242.346667c13.653333 58.026667 68.266667 102.4 133.12 102.4 75.093333 0 136.533333-61.44 136.533333-136.533334s-61.44-136.533333-136.533333-136.533333z m0-273.066667c37.546667 0 68.266667 30.72 68.266666 68.266667s-30.72 68.266667-68.266666 68.266667-68.266667-30.72-68.266667-68.266667 30.72-68.266667 68.266667-68.266667zM170.666667 204.8c0-58.026667 44.373333-102.4 102.4-102.4s102.4 44.373333 102.4 102.4-44.373333 102.4-102.4 102.4-102.4-44.373333-102.4-102.4z m614.4 716.8c-37.546667 0-68.266667-30.72-68.266667-68.266667s30.72-68.266667 68.266667-68.266666 68.266667 30.72 68.266666 68.266666-30.72 68.266667-68.266666 68.266667z"
        fill="#f0f0f0" p-id="22915"></path>
</svg>