<svg t="1723425106111" class="icon" viewBox="0 0 1024 1024" version="1.1"
    xmlns="http://www.w3.org/2000/svg" p-id="13846" width="2em" height="2em">
    <path
        d="M829.952 475.733333a320.128 320.128 0 0 0-281.685333-281.685333V106.666667a36.266667 36.266667 0 0 0-72.533334 0v87.381333a320.128 320.128 0 0 0-281.685333 281.685333H128a36.266667 36.266667 0 0 0 0 72.533334h66.048a320.128 320.128 0 0 0 281.685333 281.685333V896a36.266667 36.266667 0 1 0 72.533334 0v-66.048a320.128 320.128 0 0 0 281.685333-281.685333H896a36.266667 36.266667 0 1 0 0-72.533334h-66.048z m-65.962667 36.266667a251.989333 251.989333 0 1 1-503.978666 0 251.989333 251.989333 0 0 1 503.978666 0zM512 618.666667a106.666667 106.666667 0 1 0 0-213.333334 106.666667 106.666667 0 0 0 0 213.333334z"
        fill="#f0f0f0" p-id="13847"></path>
</svg>