<svg t="1723534925324" class="icon" viewBox="0 0 1024 1024" version="1.1"
    xmlns="http://www.w3.org/2000/svg" p-id="9372" width="2em" height="2em">
    <path
        d="M958.464 884.736H558.08a142.336 142.336 0 0 1-141.312-142.336V204.8l237.568 232.448a48.128 48.128 0 0 0 35.84 14.336 47.104 47.104 0 0 0 35.84-14.336 51.2 51.2 0 0 0 0-72.704l-307.2-307.2a51.2 51.2 0 0 0-71.68 0l-307.2 312.32a51.2 51.2 0 0 0 0 72.704 51.2 51.2 0 0 0 71.68 0L314.368 225.28v517.12a244.736 244.736 0 0 0 243.712 244.736h400.384a51.2 51.2 0 0 0 51.2-51.2 51.2 51.2 0 0 0-51.2-51.2z"
        fill="#f0f0f0" p-id="9373"></path>
</svg>