<svg t="1723513252353" class="icon" viewBox="0 0 1024 1024" version="1.1"
    xmlns="http://www.w3.org/2000/svg" p-id="2807" width="2em" height="2em">
    <path
        d="M512 830.871c-58.519 0-118.836-16.271-179.277-48.363-46.915-24.909-94.073-59.416-140.164-102.56C114.987 607.335 67.13 535.423 65.13 532.397a37.002 37.002 0 0 1 0-40.795c2-3.026 49.857-74.938 127.429-147.551 46.091-43.144 93.249-77.65 140.164-102.56C393.164 209.4 453.481 193.128 512 193.128s118.836 16.271 179.277 48.363c46.915 24.909 94.073 59.416 140.164 102.56 77.571 72.612 125.429 144.524 127.429 147.551a37.002 37.002 0 0 1 0 40.795c-2 3.026-49.857 74.938-127.429 147.551-46.091 43.144-93.249 77.65-140.164 102.56-60.441 32.091-120.758 48.363-179.277 48.363zM141.513 512C188.029 574.165 339.447 756.87 512 756.87c172.541 0 323.95-182.679 370.486-244.871C835.95 449.807 684.541 267.128 512 267.128S188.049 449.808 141.513 512z"
        fill="#f0f0f0" p-id="2808"></path>
    <path
        d="M512 674.154c-89.412 0-162.154-72.742-162.154-162.154S422.588 349.845 512 349.845 674.154 422.587 674.154 512 601.412 674.154 512 674.154z m0-250.309c-48.608 0-88.154 39.546-88.154 88.154s39.546 88.154 88.154 88.154 88.154-39.546 88.154-88.154-39.546-88.154-88.154-88.154z"
        fill="#f0f0f0" p-id="2809"></path>
    <path
        d="M210.392 850.609c-9.469 0-18.938-3.612-26.163-10.837-14.449-14.449-14.449-37.877 0-52.326l603.217-603.218c14.449-14.449 37.877-14.449 52.326 0s14.449 37.877 0 52.326L236.555 839.772c-7.225 7.225-16.695 10.837-26.163 10.837z"
        fill="#f0f0f0" p-id="2810"></path>
</svg>